<svg xmlns="http://www.w3.org/2000/svg" viewBox="0 0 506.55 91.29"><defs><style>.cls-1{fill:none;stroke:#fff;stroke-width:0.75px;}.cls-2,.cls-3{fill:#fff;}.cls-3{font-size:44px;font-family:NYTKarnak-Text, NYTKarnak;}.cls-4{letter-spacing:-0.03em;}.cls-5{letter-spacing:-0.03em;}.cls-6{letter-spacing:0em;}.cls-7{letter-spacing:-0.01em;}.cls-8{letter-spacing:-0.02em;}.cls-9{letter-spacing:-0.02em;}</style></defs><title>Asset 6</title><g id="Layer_2" data-name="Layer 2"><g id="dark-logo"><polyline class="cls-1" points="59.01 77.36 13.38 60.42 25.21 28.56"/><polyline class="cls-1" points="30.32 14.79 75.95 31.73 62.57 67.78"/><polyline class="cls-1" points="33.54 4.93 63.94 16.63 76.46 31.82"/><polyline class="cls-1" points="12.97 60.22 0.43 45.78 17.33 0.7 30.75 15.08"/><g id="jziBaW.tif"><path class="cls-2" d="M51.4,40.31c0,1.36,0,2.7,0,4a.47.47,0,0,0,.19.3c1,.93,2.07,1.85,3.14,2.79l-2,1.84a7.11,7.11,0,0,1-.83.73,1.12,1.12,0,0,0-.49,1.09c0,1.68,0,3.35,0,5,0,.12,0,.24,0,.42a10.41,10.41,0,0,0,5.82-6.13,1.26,1.26,0,0,1,.08.23,13.34,13.34,0,0,1-2.64,8.24,10.13,10.13,0,0,1-6,3.68,14.17,14.17,0,0,1-12-2.58,11.41,11.41,0,0,1-4.49-7.71,10.51,10.51,0,0,1,2.35-8.55,14.77,14.77,0,0,1,7.28-4.68l.95-.25a.5.5,0,0,1,.27,0,9.48,9.48,0,0,0-4.62,5.31l8.3-3.71c0,.19,0,.34,0,.48q0,5.93,0,11.85c0,.23,0,.39-.28.5l-5.09,2.24-.23.08V43.16l-1.73.75c-1.14.48-1.18.47-1.41,1.69a11.57,11.57,0,0,0,.5,6.81,7.8,7.8,0,0,0,6.12,4.75,12.63,12.63,0,0,0,6.19-.37.45.45,0,0,0,.39-.53c0-1.83,0-3.66,0-5.5a.88.88,0,0,0-.27-.56c-1-.91-2-1.8-3-2.74l1.83-1.62c.37-.32.72-.66,1.11-1a1,1,0,0,0,.38-.88c0-1.23,0-2.46,0-3.63A23.74,23.74,0,0,1,48.41,40c-1.94-.52-3.84-1.16-5.78-1.68-1.4-.38-2.82-.69-4.25-1a2.79,2.79,0,0,0-2.71.94,2.26,2.26,0,0,0,.25,3.12.33.33,0,0,1,.14.24c-.16,0-.33-.1-.48-.16a4,4,0,0,1-2.82-3.3,5.47,5.47,0,0,1,2.73-5.62,7.15,7.15,0,0,1,4.91-.91,33.52,33.52,0,0,1,6.37,1.8,27.77,27.77,0,0,0,3.24.78,2.34,2.34,0,0,0,2.2-.54,1.72,1.72,0,0,0-.59-2.92,6.25,6.25,0,0,0-1.51-.21,1.37,1.37,0,0,1-.44-.06,5.63,5.63,0,0,1,4.8.75,4.54,4.54,0,0,1,2,5A5.39,5.39,0,0,1,51.4,40.31Z"/></g><text class="cls-3" transform="translate(107.19 62.44)">3-D<tspan class="cls-4" x="76.51" y="0"> </tspan><tspan x="87.38" y="0">C</tspan><tspan class="cls-5" x="117.3" y="0">r</tspan><tspan x="137.89" y="0">o</tspan><tspan class="cls-6" x="165.53" y="0">s</tspan><tspan class="cls-7" x="187.48" y="0">s</tspan><tspan class="cls-8" x="209.35" y="0">w</tspan><tspan x="245.34" y="0">o</tspan><tspan class="cls-9" x="272.97" y="0">r</tspan><tspan x="293.88" y="0">d</tspan></text><line class="cls-1" x1="91.91" y1="13.73" x2="91.91" y2="79.52"/></g></g></svg>